<?xml version="1.0" encoding="UTF-8"?>
<svg id="Layer_1" xmlns="http://www.w3.org/2000/svg" version="1.1" viewBox="0 0 1920 1080">
  <!-- Generator: Adobe Illustrator 29.5.1, SVG Export Plug-In . SVG Version: 2.1.0 Build 141)  -->
  <defs>
    <style>
      .st0 {
        fill: #fff;
      }
    </style>
  </defs>
  <path class="st0" d="M1067.91,36.85c-12.5,20.84,34.73,63.91,100.03,83.35l13.89,4.17c-33.34-1.39-63.91,9.72-63.91,58.35s15.28,93.08,50.01,125.03c31.95,34.73,77.8,50.01,125.03,50.01s59.74-30.56,58.35-63.91l4.17,13.89c20.84,65.29,62.52,112.53,83.35,100.03,26.4-15.28,5.56-90.3-8.34-127.81-13.89-37.51-48.62-100.03-83.35-87.52-11.11,4.17-13.89,16.67-12.5,31.95-8.34-19.45-19.45-36.12-33.34-50.01-13.89-13.89-30.56-25.01-50.01-33.34,15.28,1.39,27.78-1.39,31.95-12.5,12.5-34.73-50.01-69.46-87.52-83.35-37.51-13.89-112.53-34.73-127.81-8.34ZM1067.91,1020.43c15.28,26.4,90.3,5.56,127.81-8.34,37.51-13.89,100.03-48.62,87.52-83.35-4.17-11.11-16.67-13.89-31.95-12.5,19.45-8.34,36.12-19.45,50.01-33.34,13.89-13.89,25.01-30.56,33.34-50.01-1.39,15.28,1.39,27.78,12.5,31.95,34.73,12.5,69.46-50.01,83.35-87.52,13.89-37.51,34.73-112.53,8.34-127.81-20.84-12.5-62.52,34.73-83.35,100.03l-4.17,13.89c1.39-33.34-9.72-63.91-58.35-63.91s-93.08,15.28-125.03,50.01c-34.73,31.95-50.01,77.8-50.01,125.03s30.56,59.74,63.91,58.35l-13.89,4.17c-65.29,19.45-112.53,62.52-100.03,83.35ZM801.17,203.56c-6.95,79.19,45.85,125.03,145.87,125.03s152.82-45.85,145.87-125.03c-5.56-56.96-36.12-87.52-100.03-97.25,45.85-5.56,68.07-20.84,65.29-44.46-4.17-29.17-44.46-45.85-111.14-45.85s-106.97,16.67-111.14,45.85c-2.78,23.62,19.45,38.9,65.29,44.46-63.91,9.72-94.47,40.29-100.03,97.25ZM801.17,853.72c5.56,56.96,36.12,87.52,100.03,97.25-45.85,5.56-68.07,20.84-65.29,44.46,4.17,29.17,44.46,45.85,111.14,45.85s106.97-16.67,111.14-45.85c2.78-23.62-19.45-38.9-65.29-44.46,63.91-9.72,94.47-40.29,100.03-97.25,6.95-79.19-45.85-125.03-145.87-125.03s-152.82,45.85-145.87,125.03ZM455.25,649.5c-26.4,15.28-5.56,90.3,8.34,127.81,13.89,37.51,48.62,100.03,83.35,87.52,11.11-4.17,13.89-16.67,12.5-31.95,8.34,19.45,19.45,36.12,33.34,50.01,13.89,13.89,30.56,25.01,50.01,33.34-15.28-1.39-27.78,1.39-31.95,12.5-12.5,34.73,50.01,69.46,87.52,83.35,37.51,13.89,112.53,34.73,127.81,8.34,12.5-20.84-34.73-63.91-100.03-83.35l-13.89-4.17c33.34,1.39,63.91-9.72,63.91-58.35s-15.28-93.08-50.01-125.03c-31.95-34.73-77.8-50.01-125.03-50.01s-59.74,30.56-58.35,63.91l-4.17-13.89c-19.45-65.29-62.52-112.53-83.35-100.03ZM592.78,174.38c-13.89,13.89-25.01,30.56-33.34,50.01,1.39-15.28-1.39-27.78-12.5-31.95-34.73-12.5-69.46,50.01-83.35,87.52-13.89,37.51-34.73,112.53-8.34,127.81,20.84,12.5,63.91-34.73,83.35-100.03l4.17-13.89c-1.39,33.34,9.72,63.91,58.35,63.91s93.08-15.28,125.03-50.01c34.73-31.95,50.01-77.8,50.01-125.03s-30.56-59.74-63.91-58.35l13.89-4.17c65.29-19.45,112.53-62.52,100.03-83.35-15.28-26.4-90.3-5.56-127.81,8.34-37.51,13.89-100.03,48.62-87.52,83.35,4.17,11.11,16.67,13.89,31.95,12.5-19.45,8.34-36.12,19.45-50.01,33.34Z"/>
  <g>
    <path class="st0" d="M982.75,595.73l-3,.02c-5.14.04-9.21-5.57-15.24-16.65-.39-.72-.72-1.32-.97-1.75-17.52-30.55-34.31-62.3-50.55-93-7.91-14.96-16.09-30.43-24.24-45.52-2.09-3.88-4.42-8.36-6.37-13.04h-24.37v216.19h23.8v-135.74c0-1.36.51-2.4.9-3.12l-6.17-17.5,18.86,17.04,74.69,138.17c10.1,1.83,13.97,1.25,15.36.27,14.16-23.52,26.8-48.47,39.02-72.6,4.47-8.83,9.09-17.95,13.73-26.89,1.55-2.98,3.29-6.53,5.14-10.29,4.81-9.76,10.26-20.83,15.04-27.77l.15-.22c.93-1.36,2.65-3.89,5.83-4.58l11.39-2.47-5.76,9.56c.07.76.59,2.18,1.56,4.23.56,1.2.97,2.07.97,3.33v128.57h23.8v-216.19h-21.71c-.54.16-1.44.54-2.01.85l-89.83,169.1Z"/>
    <path class="st0" d="M1064.37,420.67l-.12.18-85.97,161.82c-1.31-1.97-2.96-4.77-4.93-8.39-.43-.79-.8-1.46-1.07-1.94-17.43-30.4-34.18-62.07-50.38-92.7-7.92-14.98-16.11-30.46-24.27-45.6-2.41-4.48-5.14-9.76-7.08-15.03l-1.21-3.3h-41.39v236.33h43.94v-134.71l71.61,132.48,2.82.55c4.62.91,9.5,1.73,13.97,1.73,5.07,0,9.63-1.06,12.71-4.25l.4-.41.29-.49c14.51-24.03,27.35-49.38,39.76-73.89,4.46-8.8,9.07-17.91,13.68-26.8,1.59-3.07,3.36-6.67,5.24-10.48,3.23-6.56,6.76-13.72,10.07-19.61v135.88h43.94v-236.33h-32.23c-1.95,0-7.81,1.92-9.78,4.95ZM1096.31,425.78v216.19h-23.8v-128.57c0-1.26-.41-2.13-.97-3.33-.96-2.05-1.48-3.47-1.56-4.23l5.76-9.56-11.39,2.47c-3.18.69-4.9,3.22-5.83,4.58l-.15.22c-4.78,6.94-10.23,18.01-15.04,27.77-1.85,3.76-3.6,7.31-5.14,10.29-4.64,8.94-9.26,18.06-13.73,26.89-12.22,24.13-24.86,49.08-39.02,72.6-1.39.98-5.26,1.56-15.36-.27l-74.69-138.17-18.86-17.04,6.17,17.5c-.38.72-.9,1.77-.9,3.12v135.74h-23.8v-216.19h24.37c1.95,4.68,4.28,9.15,6.37,13.04,8.14,15.1,16.32,30.57,24.24,45.52,16.24,30.7,33.03,62.45,50.55,93,.25.43.58,1.04.97,1.75,6.03,11.08,10.1,16.69,15.24,16.65l3-.02,89.83-169.1c.57-.3,1.47-.68,2.01-.85h21.71Z"/>
    <path class="st0" d="M505.04,426.93l-98.63-2.07-.98,217,83.79-1.9c.24,0,.48,0,.72,0,31.83,0,59.14-10.46,79.02-30.26,17.88-17.81,28.78-42.25,30.69-68.8,1.91-26.58-5.38-52.36-20.53-72.61-16.9-22.59-42.51-36.89-74.08-41.36ZM575.66,539.45c-2.37,33.5-22.54,61.68-52.65,73.54-.69.27-18.34,6.3-21.54,6.3h-70.21v-171.48l3.48-1.13c6.89-2.24,14.05-1.47,20.36-.8,2.63.28,5.11.55,7.43.6,3.75.08,7.35.11,10.83.13,20.86.16,38.87.29,60.53,12.59,28.13,15.97,44.14,46.72,41.77,80.25Z"/>
    <path class="st0" d="M587.19,462.25c-18.6-24.86-46.62-40.53-81.05-45.34l-109.75-2.34-1.07,237.59,93.93-2.13c.24,0,.47,0,.71,0,34.55,0,64.32-11.47,86.12-33.2,19.6-19.53,31.54-46.24,33.62-75.22,2.09-28.99-5.91-57.18-22.51-79.37ZM599.65,540.9c-1.91,26.56-12.81,50.99-30.69,68.8-19.88,19.81-47.19,30.26-79.02,30.26-.24,0-.48,0-.72,0l-83.79,1.9.98-217,98.63,2.07c31.57,4.47,57.18,18.77,74.08,41.36,15.15,20.25,22.44,46.03,20.53,72.61Z"/>
    <path class="st0" d="M533.89,459.19c-21.66-12.3-39.67-12.43-60.53-12.59-3.48-.03-7.07-.05-10.83-.13-2.33-.05-4.81-.32-7.43-.6-6.31-.67-13.47-1.44-20.36.8l-3.48,1.13v171.48h70.21c3.21,0,20.85-6.02,21.54-6.3,30.11-11.86,50.28-40.04,52.65-73.54,2.37-33.53-13.63-64.28-41.77-80.25ZM565.62,538.74c-2.09,29.59-19.83,54.45-46.29,64.88-2.46.97-15.57,5.1-18.15,5.6h-59.84v-153.73c3.94-.52,8.23-.07,12.7.41,2.72.29,5.53.59,8.28.65,3.8.08,7.45.11,10.97.14,21.05.16,36.25.27,55.63,11.28,24.73,14.04,38.79,41.16,36.69,70.79Z"/>
    <path class="st0" d="M1669.78,521.17c-6.11-1.27-11.87-2.46-17.53-3.86-1.41-.35-2.85-.69-4.3-1.04-16.55-3.93-39.22-9.32-39.6-34.54-.22-14.59,7.05-26.65,20.46-33.98,18.82-10.28,47.09-9.34,64.36,2.13,9.79,6.5,15.32,15.78,20.67,24.74.83,1.39,1.67,2.8,2.53,4.21,5.79-.9,19.43-3.83,23.63-5.12-.1-.89-.52-2.27-.75-3.02-8.87-29.16-45.6-56.29-96.26-49.29-29.18,4.03-60.65,22.01-61.45,60.4-.93,44.83,38.84,53.06,77.3,61.02,5.72,1.18,11.13,2.3,16.36,3.54l3.1.73c20.88,4.89,44.54,10.44,41.83,41.51-1.07,12.25-7.65,22.1-19.02,28.5-20.44,11.49-51.74,9.37-69.02.82-12.85-6.36-24-20.1-28.46-34.55l-27.51,6.19c2.62,13.19,11.19,26.43,24.01,36.9,13.78,11.25,30.8,17.82,45.64,17.6,29.25-.45,53.54,2.32,76.45-14.98,21.81-16.47,29.6-49.49,17.01-72.1-13.47-24.2-41.93-30.11-69.45-35.82Z"/>
    <path class="st0" d="M1748.03,552.08c-15.71-28.23-47.85-34.9-76.2-40.78-6.01-1.25-11.69-2.43-17.16-3.78-1.44-.36-2.91-.71-4.39-1.06-19.09-4.53-31.61-8.71-31.86-24.89-.21-13.67,8.16-21.13,15.22-24.98,15.56-8.5,39.77-7.74,53.96,1.68,7.88,5.23,12.6,13.14,17.59,21.51,1.37,2.3,2.79,4.68,4.29,7.03l.97,1.51,1.7.56c1.29.42,2.52.83,17.21-2.3,14.14-3.01,15.78-4.01,16.4-4.38,6.34-3.87,4.09-11.28,3.1-14.53-13.47-44.3-65.31-62.04-107.24-56.25-19.31,2.67-36.02,9.95-48.32,21.08-13.87,12.53-21.41,29.51-21.82,49.09-1.11,53.21,46.82,63.12,85.33,71.09,5.65,1.17,10.99,2.27,16.07,3.48l3.13.74c23.02,5.39,35.96,9.48,34.1,30.83-.78,8.91-5.46,15.83-13.93,20.59-17.02,9.57-44.57,8.02-59.61.57-11.52-5.7-21.74-19.36-24.31-32.48l-.99-5.08-46.24,10.41.43,4.43c1.69,17.25,12.01,34.78,28.31,48.1,15.51,12.67,34.12,19.88,51.23,19.88.31,0,.63,0,.94,0,3.95-.06,7.88-.06,11.68-.06,24.81,0,48.23,0,70.68-16.96,12.03-9.09,21.15-23.29,25.01-38.95,4.03-16.37,2.16-32.73-5.27-46.08ZM1722.22,629.09c-22.91,17.3-47.2,14.53-76.45,14.98-14.84.22-31.86-6.35-45.64-17.6-12.82-10.47-21.38-23.71-24.01-36.9l27.51-6.19c4.45,14.45,15.61,28.19,28.46,34.55,17.28,8.55,48.58,10.67,69.02-.82,11.38-6.4,17.96-16.25,19.02-28.5,2.71-31.07-20.96-36.62-41.83-41.51l-3.1-.73c-5.23-1.24-10.63-2.36-16.36-3.54-38.46-7.96-78.23-16.19-77.3-61.02.8-38.39,32.27-56.37,61.45-60.4,50.66-6.99,87.39,20.13,96.26,49.29.23.75.65,2.13.75,3.02-4.2,1.29-17.84,4.22-23.63,5.12-.86-1.4-1.7-2.82-2.53-4.21-5.35-8.97-10.88-18.24-20.67-24.74-17.27-11.47-45.54-12.41-64.36-2.13-13.41,7.32-20.68,19.39-20.46,33.98.38,25.22,23.05,30.61,39.6,34.54,1.45.34,2.89.69,4.3,1.04,5.66,1.4,11.43,2.6,17.53,3.86,27.52,5.71,55.98,11.62,69.45,35.82,12.59,22.61,4.8,55.63-17.01,72.1Z"/>
    <path class="st0" d="M1468.29,521.22c-14.98-2.79-30.47-5.67-43.43-11.78-11.25-5.3-17.42-15.4-16.95-27.71.62-15.98,12.08-31.76,27.26-37.52,29.72-11.29,63.01,1,77.44,28.58.7,1.34,1.1,2.85,1.47,4.3.11.42.26,1,.41,1.5,1.06-.07,2.42-.28,3.06-.38.45-.07.85-.13,1.18-.17,5.31-.7,16.35-2.68,21.3-4.09-.76-2.39-2.54-6.65-5.75-12.59-16.43-30.47-45.46-43.09-91.37-39.72-26.08,1.92-49.6,18.61-58.53,41.53-7.56,19.41-3.16,39.84,12.06,56.03,13.68,14.55,38.55,19.28,60.5,23.46,6.4,1.22,12.44,2.37,18.11,3.72.95.23,1.96.46,3.02.71,14.59,3.38,39.02,9.03,40.89,28.23,1.82,18.76-.52,31.6-17.9,41.76-11.57,6.76-27.69,9.52-44.22,7.58-17.04-2.01-32.01-8.87-41.06-18.83-2.43-2.68-5.53-8.36-9.63-16.1-1.17-2.2-2.54-4.79-3.45-6.37-.43.04-.89.11-1.25.16-.38.06-.76.11-1.13.15-4.29.52-19.68,3.99-25.27,5.84,6.89,22.06,18.63,35.92,38.79,46.01,11.15,5.58,14.62,5.73,24.89,6.17,1.84.08,3.87.17,6.15.3,2.9.16,5.76.35,8.58.53,27.16,1.74,48.6,3.11,69.99-14.76,11.53-9.64,19.28-23.46,21.26-37.93,2.05-14.98-2.07-29.52-11.6-40.96-15.35-18.42-40.52-23.11-64.86-27.64Z"/>
    <path class="st0" d="M1470.14,511.32c-15.01-2.8-29.19-5.44-40.98-10.99-9.64-4.55-11.4-12.41-11.18-18.21.46-11.92,9.39-24.17,20.77-28.49,24.96-9.47,52.87.77,64.94,23.83.17.34.46,1.44.65,2.17.61,2.34,1.3,4.98,3.21,6.89h0c2.97,2.96,7.93,2.2,11.54,1.64.36-.06.69-.11.96-.14,1.89-.25,8.09-1.2,14.25-2.43,11.33-2.26,13.86-3.64,15.24-5.86,1.22-1.97,3.27-5.26-6.38-23.16-18.29-33.92-51.32-48.64-100.98-44.98-29.87,2.2-56.86,21.45-67.17,47.92-9.03,23.18-3.88,47.45,14.11,66.59,15.92,16.93,42.5,21.99,65.96,26.45,6.28,1.19,12.21,2.32,17.65,3.62.97.23,2.01.47,3.09.72,12.73,2.95,31.97,7.4,33.14,19.4,1.56,16.04.06,24.49-12.96,32.09-20.79,12.15-57.5,7.44-72.74-9.33-1.77-1.95-5.63-9.23-8.18-14.04-4.66-8.79-5.5-10.37-8-11.21-2.63-.88-5.18-.51-7.04-.24-.3.04-.61.09-.9.12-4.68.57-26.04,5.14-30.64,7.69l-.24.12c-4.29,2.23-4.23,5.68-3.81,7.54l.07.28c7.51,26.43,21.34,43.46,44.85,55.22,13.08,6.54,18.39,6.77,28.96,7.23,1.8.08,3.78.16,6.02.29,2.87.16,5.71.34,8.5.52,7.48.48,14.84.95,22.1.95,19,0,37.28-3.23,54.99-18.03,13.63-11.39,22.43-27.12,24.78-44.29,2.44-17.81-2.47-35.14-13.84-48.78-17.67-21.21-44.66-26.24-70.75-31.1ZM1544.75,589.83c-1.98,14.47-9.73,28.3-21.26,37.93-21.39,17.87-42.84,16.5-69.99,14.76-2.82-.18-5.68-.36-8.58-.53-2.29-.13-4.31-.22-6.15-.3-10.28-.44-13.74-.59-24.89-6.17-20.16-10.09-31.89-23.95-38.79-46.01,5.59-1.85,20.98-5.31,25.27-5.84.37-.04.75-.1,1.13-.15.35-.05.82-.12,1.25-.16.91,1.58,2.28,4.17,3.45,6.37,4.1,7.74,7.19,13.42,9.63,16.1,9.05,9.96,24.02,16.82,41.06,18.83,16.53,1.94,32.65-.82,44.22-7.58,17.38-10.16,19.72-23,17.9-41.76-1.87-19.2-26.29-24.86-40.89-28.23-1.06-.24-2.07-.48-3.02-.71-5.67-1.35-11.71-2.5-18.11-3.72-21.95-4.18-46.83-8.91-60.5-23.46-15.23-16.2-19.62-36.62-12.06-56.03,8.93-22.92,32.45-39.61,58.53-41.53,45.91-3.37,74.94,9.25,91.37,39.72,3.2,5.94,4.99,10.21,5.75,12.59-4.95,1.41-15.99,3.4-21.3,4.09-.33.04-.74.11-1.18.17-.64.1-2.01.31-3.06.38-.15-.51-.3-1.08-.41-1.5-.38-1.45-.77-2.96-1.47-4.3-14.43-27.58-47.72-39.86-77.44-28.58-15.17,5.76-26.64,21.54-27.26,37.52-.48,12.31,5.7,22.41,16.95,27.71,12.96,6.11,28.45,8.99,43.43,11.78,24.34,4.53,49.51,9.22,64.86,27.64,9.53,11.44,13.65,25.99,11.6,40.96Z"/>
    <path class="st0" d="M1244.14,425.26c-4.94-.56-9.63-1.09-13.82.09l-96.82,215.16c9.43.68,18.25.88,26.91-.51l19.27-45.03c2.58-5.48,8.53-5.97,11.72-6.23l.66-.06.35.02c15.48.84,31.84.35,47.67-.12,17.23-.52,35.06-1.05,52.04.11l.36.02c2.65.18,5.65.38,8.69,1.68l1.89.81,20.37,49.52,26.83-.64-94.94-214.18c-3.83.19-7.56-.24-11.18-.64ZM1195.51,566.04l.36-5.37c.27-4.03,1.82-7.69,3.19-10.91.27-.63.54-1.26.79-1.89,1.92-4.73,3.88-9.58,5.86-14.5,8.48-21.04,17.25-42.79,26.34-62.24l.22-.49c1.74-3.82,4.97-10.94,11.03-9.76l2.59.5,45.83,104.64h-96.21Z"/>
    <path class="st0" d="M1258.13,415.54l-1.84.2c-3.46.37-7.13-.04-11.03-.48-6.36-.72-13.57-1.53-20.6,1.41l-1.83.77-104.36,231.91,7.06.62c6.96.61,13.83,1.13,20.63,1.13,6.31,0,12.57-.45,18.78-1.68l2.6-.52,21.2-49.54c.61-.34,2.44-.49,3.45-.57,15.8.84,32.25.35,48.17-.13,16.99-.51,34.56-1.03,51.05.1l.37.02c1.33.09,2.55.17,3.64.38l21.32,51.81,48.83-1.16-102.28-230.76-5.16-3.51ZM1323.43,640.73l-20.37-49.52-1.89-.81c-3.04-1.3-6.04-1.5-8.69-1.68l-.36-.02c-16.98-1.16-34.8-.63-52.04-.11-15.82.47-32.19.96-47.67.12l-.35-.02-.66.06c-3.19.26-9.14.75-11.72,6.23l-19.27,45.03c-8.66,1.39-17.48,1.19-26.91.51l96.82-215.16c4.19-1.17,8.89-.64,13.82-.09,3.62.41,7.35.83,11.18.64l94.94,214.18-26.83.64Z"/>
    <path class="st0" d="M1243.31,460.9c-6.05-1.18-9.29,5.94-11.03,9.76l-.22.49c-9.09,19.44-17.86,41.2-26.34,62.24-1.98,4.92-3.94,9.77-5.86,14.5-.25.62-.52,1.25-.79,1.89-1.37,3.22-2.93,6.87-3.19,10.91l-.36,5.37h96.21l-45.83-104.64-2.59-.5ZM1207.39,555.97c.3-.74.62-1.49.94-2.26.29-.69.58-1.36.85-2.04,1.93-4.74,3.89-9.6,5.87-14.53,8.41-20.86,17.1-42.42,26.05-61.58l35.21,80.41h-68.94Z"/>
    <path class="st0" d="M701.49,425.88l-94.38,215.25,25.87.64,19.47-47.38,5.08-5.45,107.28-.25,10.78,2.46,20.94,48.65c5.31,1.25,10.92,1.19,16.83,1.13,2.92-.03,5.9-.06,8.9.07l-94.72-215.39c-4.26-.23-19.93-.13-26.05.26ZM664.72,566.04l49.14-114.96,50.35,114.96h-99.49Z"/>
    <path class="st0" d="M735.76,419.29l-.29-.41c-1.7-2.42-4.16-2.89-5.22-3.09-2.54-.48-13.81-.37-17.21-.33-15.5.21-16.39.74-17.62,1.48l-1.38.83-102.19,233.06,47.79,1.18,21.4-52.09.85-.91,101.77-.24,4.67,1.07,20.8,48.3,2.21.69c7.45,2.33,14.9,2.25,22.1,2.18,5.59-.06,10.87-.11,15.92.93l9.55,1.97-102.97-234.15-.2-.46ZM813.36,640.93c-5.91.06-11.52.11-16.83-1.13l-20.94-48.65-10.78-2.46-107.28.25-5.08,5.45-19.47,47.38-25.87-.64,94.38-215.25c6.12-.39,21.79-.5,26.05-.26l94.72,215.39c-3-.13-5.97-.1-8.9-.07Z"/>
    <path class="st0" d="M664.72,566.04h99.49l-50.35-114.96-49.14,114.96ZM748.8,555.97h-68.82l33.99-79.53"/>
    <path class="st0" d="M250.82,425.75l-1.16.9-94.1,213.44,26.87.63c1.7-4.1,3.36-8.28,4.98-12.35,3.16-7.98,6.44-16.22,10.15-24.14.24-.5.52-1.16.84-1.91,2.95-6.85,5.38-11.79,9.64-12.97l.66-.18,114.98.06,21.5,51.17,24.99-.37-93.25-215.06-26.11.78ZM308.99,554.71l.36.76,1.24,10.58h-90.29l-3.63-6.89,42.22-99.09,3.03-.24c4.94-.4,8.01,4.56,13.46,16.57l.43.94c5.59,12.06,10.68,24.55,15.6,36.62,5.51,13.51,11.2,27.47,17.57,40.77Z"/>
    <path class="st0" d="M247.22,415.78l-5.76,4.49-101.2,229.54,48.76,1.15,1.34-3.14c2.22-5.21,4.35-10.55,6.4-15.73,3.11-7.83,6.32-15.93,9.91-23.57.27-.58.6-1.34.97-2.2.68-1.57,2.32-5.39,3.49-7.07l105.85.06,21.55,51.27,46.88-.7-101.97-235.17-36.23,1.08ZM345.18,640.41l-21.5-51.17-114.98-.06-.66.18c-4.27,1.18-6.69,6.12-9.64,12.97-.32.75-.61,1.41-.84,1.91-3.72,7.92-6.99,16.16-10.15,24.14-1.61,4.07-3.27,8.25-4.98,12.35l-26.87-.63,94.1-213.44,1.16-.9,26.11-.78,93.25,215.06-24.99.37Z"/>
    <path class="st0" d="M275.39,476.38c-5.45-12.01-8.52-16.97-13.46-16.57l-3.03.24-42.22,99.09,3.63,6.89h90.29l-1.24-10.58-.36-.76c-6.37-13.29-12.06-27.26-17.57-40.77-4.92-12.07-10.01-24.56-15.6-36.62l-.43-.94ZM298.44,555.97h-69.47l34.56-81.11c.75,1.49,1.63,3.35,2.69,5.67l.46,1.01c5.49,11.85,10.54,24.23,15.42,36.19,5.14,12.61,10.45,25.62,16.35,38.23Z"/>
  </g>
</svg>