<?xml version="1.0" encoding="UTF-8"?>
<svg xmlns="http://www.w3.org/2000/svg" width="68" height="48" viewBox="0 0 68 48" fill="none">
  <path d="M64.683 3.165H3.32v41.758h61.363V3.165zm-7.492 36.467H36.394S15.84 14.986 15.716 15.062v20.707c0 2.564 3.417 3.65 3.417 3.65l.091.208h-8.568c0-.008.086-.2.087-.202.002 0 2.067-.58 2.067-3.659 0-6.005-.019-17.666-.011-23.718 0-1.708-1.828-3.234-3.762-3.805l-.095-.21h8.018L36.234 31.71V12.195c0-1.88-1.46-3.312-3.37-3.95l-.094-.213h22.626v6.32c-.096-.045-.207-.086-.207-.086s-.749-2.24-2.473-3.13c-.589-.307-3.941-.194-11.27-.194v9.93h11.17c1.916 0 2.4-1.763 2.422-1.772l.208-.089s.01 4.652.01 6.876l-.209-.087s-.51-2.063-2.433-2.063H41.447v13.031c7.18 0 11.624.29 13.62-.716 1.538-.795 2.614-3.728 2.614-3.728s.105-.04.215-.092c-.245 2.55-.46 4.761-.705 7.4z" fill="#000"></path>
  <path d="M0 0v48h68V0H0zm66.34 46.462H1.659V1.626h64.683v44.836z" fill="#000"></path>
</svg>
